<svg height="27" viewBox="0 0 295 27" width="295" xmlns="http://www.w3.org/2000/svg"><g fill="#fc0"><path d="m17.4605 22.7666038c0-.7055661-.1625-1.3963585-.482-2.0535283-.598-1.2287547-2.511-2.1238302-4.361-2.9868113-.9015-.4213019-1.8065-.8456604-2.524-1.2873397-3.439-2.1243396-4.5725-4.7219434-4.918-6.52890563-.094-.49160378-.1425-.99543396-.1425-1.49620755 0-1.54715094.4495-3.01330189 1.266-4.12692453 3.2445-4.42850943 8.747-3.91703773 10.356-3.65569811-1.5925.07183019-5.5025.78809434-7.379 4.58439623-.3685.74581132-.5555 1.50945283-.5555 2.2710566 0 3.10092449 3.1045 5.77901889 5.5985 7.93035849.8615.7427547 1.676 1.4457736 2.2885 2.0968302 1.106 1.1783207 1.668 2.4330566 1.668 3.7321132 0 1.5170943-.7745 2.7285283-1.2355 3.3164151.297-.5608868.4205-1.1747547.4205-1.7957547"/><path d="m2.215 20.9611698c.753.6495283 2.335 1.7193396 5.2825 2.5599057 1.506.4309811 2.9085.4646037 4.035.4910943 1.0155.0254717 1.818.0458491 2.317.3301132.413.2348491.661.6087736.661.9969623l-.028.2226226c-.1445.5761698-.914 1.1966604-2.6385 1.2139812-5.157.0489056-8.3765-3.9099057-9.629-5.8146793"/><path d="m11.523 11.8575849s2.142-3.65824528 4.3545-4.24816981c2.685-.71626415 4.1605.45543397 4.1605.45543397l.7375-1.49773585 1.142 5.73011319s.2005.5201321-.74 1.1722076c-.9375.6500377-1.0045.5206415-1.0045.5206415s-.6045-2.3439057-1.8125-2.603717c-1.207-.2618491-1.207 1.3673207-1.141 1.8869434.068.5206415 1.094 2.6546604 2.8185 1.7575472 1.8795-.9760755 2.7515-2.2134906 2.7515-2.2134906s.2685-.6500377.5375-.455434c.2675.1946038 1.274 1.3021132 1.274 1.3021132l-.403 6.8366038s0 .8471887-1.14 1.1722076c-1.1405.3260377-1.1405.2603207-1.1405.2603207l.603-2.0846038h.7385l-.201-4.8177169s-.636 3.1442264-1.812 5.2104905c-1.408 2.4727925-3.6915 4.4916793-3.6915 4.4916793s1.4435-1.7529623 1.214-3.8900378c-.1505-1.4157169-.756-3.0520188-3.7605-5.5783019-1.6985-1.4284528-3.485-3.4070943-3.485-3.4070943"/><path d="m15.0265 25.1731698c0-.2180377-.0465-.4192641-.139-.5985849-.3365-.6566604-1.2545-1.0158113-2.728-1.0672641-2.681-.0937359-9.1105-.7763774-10.9125-5.1116604-.5775-1.3927925-.872-2.9088679-.872-4.5079812 0-1.8263207.3825-3.3169245.64-4.12132071-.0315.22058491-.048.62864151-.048.62864151 0 1.7111887.4025 4.9196038 3.1025 7.1957547 1.713 1.446283 4.279 2.5869057 7.626 3.3918113 2.2685.5445849 3.5635 1.3713963 3.8495 2.4539434l.058.4595095c0 .5359245-.235 1.1029245-.667 1.6826603.0445-.1395849.0905-.4055094.0905-.4055094"/><path d="m16.215 23.9546038c0-.3066793-.053-.6423963-.1975-.9877925-.49-1.1722075-1.8575-2.0137924-4.0645-2.5033585-5.79-1.2858113-9.0705-3.6439811-10.0275-7.2100188-.236-.8818302-.341-1.7055849-.341-2.4743208 0-4.8900566 4.2225-7.51771697 5.6575-8.2681132-.768.73562264-2.404 2.53901887-2.7105 4.82739623-.055.41315094-.0835.82069811-.0835 1.22060377 0 2.9063208 1.472 5.4590943 4.473 7.7714151.9495.7305283 2.225 1.3184151 3.4575 1.8854151 1.774.8171321 3.4485 1.5884151 4.1065 2.7142641.3275.5613963.451 1.1085283.451 1.6103208 0 1.0479057-.53 1.9047736-.888 2.3693774.087-.2496227.167-.5761699.167-.9551887"/><path d="m16.047 3.8910566c-.9375 0-1.8085-.88590566-1.8085-1.84262264 0 .95671698-.871 1.84262264-1.8085 1.84262264.9375 0 1.8085.8879434 1.8085 1.84313208 0-.95518868.871-1.84313208 1.8085-1.84313208"/><path d="m3.61310832 8.59870588c-2.088 0-3.36523404-1.22294117-3.36523404-3.62223529v-4.65882353h1.71038297v4.61223529c0 1.32776471.63306383 2.01494118 1.67706383 2.01494118s1.67706383-.66388235 1.67706383-1.95670588v-4.67047059h1.71038298v4.60058823c0 2.46917647-1.32165957 3.68047059-3.40965957 3.68047059zm7.17270408-.12811764v-8.15294118h1.5771064l3.6428936 5.01988235v-5.01988235h1.6881702v8.15294118h-1.4549362l-3.7650638-5.18294118v5.18294118zm10.8711296 0v-8.15294118h1.710383v8.15294118zm8.1500657.05823529-3.1431063-8.21117647h1.8880851l2.032468 5.742 2.0324681-5.742h1.8436596l-3.1431064 8.21117647zm7.8724062-.05823529v-8.15294118h5.8641702v1.59564706h-4.1648936v1.65388235h3.6651064v1.59564706h-3.6651064v1.71211765h4.2204256v1.59564706zm9.460619 0v-8.15294118h3.5540425c.9884681 0 1.7548085.29117647 2.2657022.82694118.4331489.45423529.6663829 1.09482352.6663829 1.86352941v.02329411c0 1.31611765-.6774893 2.14305883-1.6659574 2.52741177l1.8991915 2.91176471h-1.999149l-1.6659574-2.60894118h-1.3438723v2.60894118zm1.710383-4.19294118h1.7325957c.8329787 0 1.3105532-.46588235 1.3105532-1.15305882v-.02329412c0-.76870588-.5108936-1.16470588-1.3438723-1.16470588h-1.6992766zm11.1043636 4.30941176c-1.1772766 0-2.3656596-.43094117-3.2985957-1.30447058l1.0106808-1.26952942c.6997021.60564706 1.4327234.99 2.321234.99.6997022 0 1.1217447-.29117647 1.1217447-.76870588v-.02329412c0-.45423529-.2665532-.68717647-1.566-1.03658823-1.566-.41929412-2.5766808-.87352941-2.5766808-2.49247059v-.02329412c0-1.47917647 1.132851-2.45752941 2.7210638-2.45752941 1.1328511 0 2.0991064.37270588 2.8876596 1.03658824l-.8885107 1.35105882c-.6885957-.50082353-1.3660851-.80364706-2.0213617-.80364706s-.9995744.31447059-.9995744.71047059v.02329412c0 .5357647.3331915.71047058 1.6770638 1.07152941 1.5771064.43094117 2.465617 1.02494117 2.465617 2.44588235v.02329412c0 1.61894118-1.1772766 2.52741176-2.8543404 2.52741176zm6.4396828-.11647058v-8.15294118h1.710383v8.15294118zm7.4836828 0v-6.49905883h-2.3656596v-1.65388235h6.4417021v1.65388235h-2.3656596v6.49905883zm9.5938955 0v-3.21458824l-2.987617-4.93835294h1.9991489l1.854766 3.27282353 1.8880851-3.27282353h1.943617l-2.987617 4.90341176v3.24952942zm16.9109824.1397647c-2.3989785 0-4.1204679-1.87517647-4.1204679-4.19294118v-.02329411c0-2.31776471 1.7437022-4.2162353 4.1426809-4.2162353 2.398979 0 4.120468 1.87517647 4.120468 4.19294118v.02329412c0 2.3177647-1.743702 4.21623529-4.142681 4.21623529zm.022213-1.65388235c1.377191 0 2.33234-1.14141177 2.33234-2.53905883v-.02329411c0-1.39764706-.977361-2.56235294-2.354553-2.56235294-1.3771913 0-2.3323402 1.14141176-2.3323402 2.53905882v.02329412c0 1.39764706.9773617 2.56235294 2.3545532 2.56235294zm7.661385 1.51411765v-8.15294118h5.919702v1.63058823h-4.209319v1.73541177h3.709532v1.63058823h-3.709532v3.15635295zm18.29928.1397647c-2.287915 0-3.987191-1.85188235-3.987191-4.19294118v-.02329411c0-2.31776471 1.665957-4.2162353 4.05383-4.2162353 1.466042 0 2.343446.51247059 3.065361 1.25788236l-1.088425 1.31611764c-.599745-.57070588-1.210596-.92011764-1.988043-.92011764-1.310553 0-2.254595 1.14141176-2.254595 2.53905882v.02329412c0 1.39764706.921829 2.56235294 2.254595 2.56235294.888511 0 1.432724-.37270588 2.043575-.95505883l1.088425 1.15305883c-.799659.89682353-1.68817 1.45588235-3.187532 1.45588235zm6.57296-.1397647v-8.15294118h5.86417v1.59564706h-4.164894v1.65388235h3.665107v1.59564706h-3.665107v1.71211765h4.220426v1.59564706zm9.460619 0v-8.15294118h1.577106l3.642894 5.01988235v-5.01988235h1.68817v8.15294118h-1.454936l-3.765064-5.18294118v5.18294118zm12.603725 0v-6.49905883h-2.36566v-1.65388235h6.441703v1.65388235h-2.36566v6.49905883zm7.405938 0v-8.15294118h3.554043c.988468 0 1.754808.29117647 2.265702.82694118.433149.45423529.666383 1.09482352.666383 1.86352941v.02329411c0 1.31611765-.67749 2.14305883-1.665958 2.52741177l1.899192 2.91176471h-1.999149l-1.665958-2.60894118h-1.343872v2.60894118zm1.710383-4.19294118h1.732596c.832979 0 1.310553-.46588235 1.310553-1.15305882v-.02329412c0-.76870588-.510894-1.16470588-1.343872-1.16470588h-1.699277zm7.672491 4.19294118 3.331915-8.21117647h1.577107l3.331915 8.21117647h-1.788128l-.710809-1.82858824h-3.287489l-.710808 1.82858824zm3.065362-3.41258824h2.065787l-1.032893-2.64388235zm8.394406 3.41258824v-8.15294118h1.710383v6.52235294h3.876128v1.63058824zm14.245451 0v-8.15294118h5.919702v1.63058823h-4.209319v1.73541177h3.709532v1.63058823h-3.709532v3.15635295zm9.30513 0v-8.15294118h1.710383v6.52235294h3.876127v1.63058824zm12.226108.1397647c-2.398979 0-4.120468-1.87517647-4.120468-4.19294118v-.02329411c0-2.31776471 1.743702-4.2162353 4.142681-4.2162353 2.398978 0 4.120468 1.87517647 4.120468 4.19294118v.02329412c0 2.3177647-1.743702 4.21623529-4.142681 4.21623529zm.022213-1.65388235c1.377191 0 2.33234-1.14141177 2.33234-2.53905883v-.02329411c0-1.39764706-.977362-2.56235294-2.354553-2.56235294-1.377192 0-2.332341 1.14141176-2.332341 2.53905882v.02329412c0 1.39764706.977362 2.56235294 2.354554 2.56235294zm7.661385 1.51411765v-8.15294118h3.554042c.988468 0 1.754809.29117647 2.265702.82694118.433149.45423529.666383 1.09482352.666383 1.86352941v.02329411c0 1.31611765-.677489 2.14305883-1.665957 2.52741177l1.899191 2.91176471h-1.999149l-1.665957-2.60894118h-1.343872v2.60894118zm1.710383-4.19294118h1.732595c.832979 0 1.310553-.46588235 1.310553-1.15305882v-.02329412c0-.76870588-.510893-1.16470588-1.343872-1.16470588h-1.699276zm8.416619 4.19294118v-8.15294118h1.710382v8.15294118zm5.673342 0v-8.15294118h3.032042c2.443405 0 4.131575 1.75870588 4.131575 4.05317647v.02329412c0 2.29447059-1.68817 4.07647059-4.131575 4.07647059zm3.032042-6.534h-1.321659v4.91505882h1.321659c1.399405 0 2.343447-.99 2.343447-2.4342353v-.02329411c0-1.4442353-.944042-2.45752941-2.343447-2.45752941zm7.006109 6.534 3.331915-8.21117647h1.577106l3.331915 8.21117647h-1.788128l-.710808-1.82858824h-3.28749l-.710808 1.82858824zm3.065361-3.41258824h2.065788l-1.032894-2.64388235z" transform="translate(34 10)"/></g></svg>