<svg width="80px" height="108px" viewBox="0 0 80 108" version="1.1" xmlns="http://www.w3.org/2000/svg" xmlns:xlink="http://www.w3.org/1999/xlink">
    <defs>
        <polygon id="path-1" points="0.06 0.5 79.75 0.5 79.75 107.94 0.06 107.94"></polygon>
    </defs>
    <g id="Page-1" stroke="none" stroke-width="1" fill="none" fill-rule="evenodd">
        <g id="TheTab_KG7406">
            <g id="Group-3">
                <mask id="mask-2" fill="white">
                    <use xlink:href="#path-1"></use>
                </mask>
                <g id="Clip-2"></g>
                <polygon id="Fill-1" fill="#000000" mask="url(#mask-2)" points="0.06 107.94 79.75 107.94 79.75 0.5 0.06 0.5"></polygon>
            </g>
            <path d="M15.274,86.483 L15.274,76.894 L18.966,76.894 L18.966,86.388 C18.966,89.12 20.333,90.534 22.585,90.534 C24.839,90.534 26.206,89.168 26.206,86.507 L26.206,76.894 L29.897,76.894 L29.897,86.363 C29.897,91.445 27.044,93.938 22.538,93.938 C18.031,93.938 15.274,91.422 15.274,86.483" id="Fill-4" fill="#FFFFFF"></path>
            <path d="M33.636,85.333 L33.636,85.285 C33.636,80.515 37.232,76.607 42.386,76.607 C45.55,76.607 47.443,77.662 49.002,79.196 L46.652,81.904 C45.358,80.73 44.04,80.011 42.362,80.011 C39.533,80.011 37.496,82.36 37.496,85.236 L37.496,85.285 C37.496,88.161 39.485,90.559 42.362,90.559 C44.279,90.559 45.454,89.791 46.772,88.593 L49.122,90.966 C47.396,92.811 45.479,93.963 42.242,93.963 C37.304,93.963 33.636,90.151 33.636,85.333" id="Fill-5" fill="#FFFFFF"></path>
            <polyline id="Fill-6" fill="#FFFFFF" points="52.789 76.894 65.565 76.894 65.565 80.251 56.48 80.251 56.48 83.822 64.487 83.822 64.487 87.179 56.48 87.179 56.48 93.675 52.789 93.675 52.789 76.894"></polyline>
            <path d="M49.921,58.69 C49.921,57.305 49.596,55.949 48.957,54.659 C47.761,52.247 43.935,50.49 40.235,48.796 C38.432,47.969 36.622,47.136 35.187,46.269 C28.309,42.099 26.042,37 25.351,33.453 C25.163,32.488 25.066,31.499 25.066,30.516 C25.066,27.479 25.965,24.601 27.598,22.415 C34.087,13.722 45.092,14.726 48.31,15.239 C45.125,15.38 37.305,16.786 33.552,24.238 C32.815,25.702 32.441,27.201 32.441,28.696 C32.441,34.783 38.65,40.04 43.638,44.263 C45.361,45.721 46.99,47.101 48.215,48.379 C50.427,50.692 51.551,53.155 51.551,55.705 C51.551,58.683 50.002,61.061 49.08,62.215 C49.674,61.114 49.921,59.909 49.921,58.69" id="Fill-7" fill="#FFCC00"></path>
            <path d="M19.43,55.146 C20.936,56.421 24.1,58.521 29.995,60.171 C33.007,61.017 35.812,61.083 38.065,61.135 C40.096,61.185 41.701,61.225 42.699,61.783 C43.525,62.244 44.021,62.978 44.021,63.74 L43.965,64.177 C43.676,65.308 42.137,66.526 38.688,66.56 C28.374,66.656 21.935,58.885 19.43,55.146" id="Fill-8" fill="#FFCC00"></path>
            <path d="M38.046,37.276 C38.046,37.276 42.33,30.095 46.755,28.937 C52.125,27.531 55.076,29.831 55.076,29.831 L56.551,26.891 L58.835,38.139 C58.835,38.139 59.236,39.16 57.355,40.44 C55.48,41.716 55.346,41.462 55.346,41.462 C55.346,41.462 54.137,36.861 51.721,36.351 C49.307,35.837 49.307,39.035 49.439,40.055 C49.575,41.077 51.627,45.266 55.076,43.505 C58.835,41.589 60.579,39.16 60.579,39.16 C60.579,39.16 61.116,37.884 61.654,38.266 C62.189,38.648 64.202,40.822 64.202,40.822 L63.396,54.242 C63.396,54.242 63.396,55.905 61.116,56.543 C58.835,57.183 58.835,57.054 58.835,57.054 L60.041,52.962 L61.518,52.962 L61.116,43.505 C61.116,43.505 59.844,49.677 57.492,53.733 C54.676,58.587 50.109,62.55 50.109,62.55 C50.109,62.55 52.996,59.109 52.537,54.914 C52.236,52.135 51.025,48.923 45.016,43.964 C41.619,41.16 38.046,37.276 38.046,37.276" id="Fill-9" fill="#FFCC00"></path>
            <path d="M45.053,63.414 C45.053,62.986 44.96,62.591 44.775,62.239 C44.102,60.95 42.266,60.245 39.319,60.144 C33.957,59.96 21.098,58.62 17.494,50.11 C16.339,47.376 15.75,44.4 15.75,41.261 C15.75,37.676 16.515,34.75 17.03,33.171 C16.967,33.604 16.934,34.405 16.934,34.405 C16.934,37.764 17.739,44.062 23.139,48.53 C26.565,51.369 31.697,53.608 38.391,55.188 C42.928,56.257 45.518,57.88 46.09,60.005 L46.206,60.907 C46.206,61.959 45.736,63.072 44.872,64.21 C44.961,63.936 45.053,63.414 45.053,63.414" id="Fill-10" fill="#FFCC00"></path>
            <path d="M47.43,61.022 C47.43,60.42 47.324,59.761 47.035,59.083 C46.055,56.782 43.32,55.13 38.906,54.169 C27.326,51.645 20.765,47.016 18.851,40.016 C18.379,38.285 18.169,36.668 18.169,35.159 C18.169,25.56 26.614,20.402 29.484,18.929 C27.948,20.373 24.676,23.913 24.063,28.405 C23.953,29.216 23.896,30.016 23.896,30.801 C23.896,36.506 26.84,41.517 32.842,46.056 C34.741,47.49 37.292,48.644 39.757,49.757 C43.305,51.361 46.654,52.875 47.97,55.085 C48.625,56.187 48.872,57.261 48.872,58.246 C48.872,60.303 47.812,61.985 47.096,62.897 C47.27,62.407 47.43,61.766 47.43,61.022" id="Fill-11" fill="#FFCC00"></path>
            <path d="M47.094,21.638 C45.219,21.638 43.477,19.899 43.477,18.021 C43.477,19.899 41.735,21.638 39.86,21.638 C41.735,21.638 43.477,23.381 43.477,25.256 C43.477,23.381 45.219,21.638 47.094,21.638" id="Fill-12" fill="#FFCC00"></path>
        </g>
    </g>
</svg>
